M48
;DRILL file {KiCad 4.0.2-stable} date 2016/07/18 1:21:47
;FORMAT={-:-/ absolute / metric / decimal}
FMAT,2
METRIC,TZ
T1C0.400
T2C1.016
%
G90
G05
M71
T1
X141.478Y-63.754
X141.478Y-73.406
X141.732Y-106.934
X142.621Y-64.516
X142.621Y-71.882
X143.002Y-99.06
X143.789Y-94.488
X144.018Y-91.44
X144.729Y-67.386
X145.034Y-96.012
X145.542Y-90.678
X150.114Y-69.85
X151.384Y-91.44
X154.178Y-105.156
X154.178Y-107.696
X154.686Y-103.632
X155.448Y-91.44
X155.448Y-98.806
T2
X139.954Y-113.03
X142.494Y-113.03
X145.034Y-113.03
X149.352Y-113.03
X151.892Y-113.03
X154.432Y-113.03
X156.972Y-113.03
T0
M30
