G04 #@! TF.FileFunction,Legend,Top*
%FSLAX46Y46*%
G04 Gerber Fmt 4.6, Leading zero omitted, Abs format (unit mm)*
G04 Created by KiCad (PCBNEW 4.0.2-stable) date 2016/07/18 1:21:03*
%MOMM*%
G01*
G04 APERTURE LIST*
%ADD10C,0.100000*%
%ADD11C,0.150000*%
G04 APERTURE END LIST*
D10*
D11*
X139954000Y-76758800D02*
X143459200Y-76758800D01*
X143459200Y-76758800D02*
X143459200Y-74853800D01*
X143459200Y-74853800D02*
X144272000Y-74853800D01*
X144272000Y-74853800D02*
X144272000Y-63322200D01*
X144272000Y-63322200D02*
X143459200Y-63322200D01*
X143459200Y-63322200D02*
X143459200Y-61417200D01*
X143459200Y-61417200D02*
X139954000Y-61417200D01*
X143459200Y-61874400D02*
X144830800Y-61874400D01*
X144170400Y-63322200D02*
X144170400Y-62687200D01*
X143459200Y-62687200D02*
X144830800Y-62687200D01*
X144170400Y-74853800D02*
X144170400Y-75488800D01*
X143459200Y-76301600D02*
X144830800Y-76301600D01*
X143459200Y-75488800D02*
X144830800Y-75488800D01*
X145643600Y-77647800D02*
X144830800Y-77647800D01*
X144830800Y-77647800D02*
X144830800Y-75006200D01*
X144830800Y-75006200D02*
X145643600Y-75006200D01*
X145643600Y-77647800D02*
X145643600Y-60528200D01*
X145643600Y-60528200D02*
X144830800Y-60528200D01*
X144830800Y-60528200D02*
X144830800Y-63169800D01*
X144830800Y-63169800D02*
X145643600Y-63169800D01*
X139954000Y-76758800D02*
X139954000Y-61417200D01*
X158522000Y-111730000D02*
X156972000Y-111730000D01*
X158522000Y-113030000D02*
X158522000Y-111730000D01*
X157099000Y-117221000D02*
X157099000Y-123063000D01*
X157099000Y-123063000D02*
X156845000Y-123063000D01*
X156845000Y-123063000D02*
X156845000Y-117221000D01*
X156845000Y-117221000D02*
X156972000Y-117221000D01*
X156972000Y-117221000D02*
X156972000Y-123063000D01*
X157226000Y-114554000D02*
X157226000Y-114173000D01*
X156718000Y-114554000D02*
X156718000Y-114173000D01*
X154686000Y-114554000D02*
X154686000Y-114173000D01*
X154178000Y-114554000D02*
X154178000Y-114173000D01*
X152146000Y-114554000D02*
X152146000Y-114173000D01*
X151638000Y-114554000D02*
X151638000Y-114173000D01*
X149098000Y-114554000D02*
X149098000Y-114173000D01*
X149606000Y-114554000D02*
X149606000Y-114173000D01*
X158242000Y-114554000D02*
X158242000Y-117094000D01*
X155702000Y-114554000D02*
X155702000Y-117094000D01*
X155702000Y-114554000D02*
X153162000Y-114554000D01*
X153162000Y-114554000D02*
X153162000Y-117094000D01*
X154686000Y-117094000D02*
X154686000Y-123190000D01*
X154686000Y-123190000D02*
X154178000Y-123190000D01*
X154178000Y-123190000D02*
X154178000Y-117094000D01*
X153162000Y-117094000D02*
X155702000Y-117094000D01*
X155702000Y-117094000D02*
X158242000Y-117094000D01*
X156718000Y-123190000D02*
X156718000Y-117094000D01*
X157226000Y-123190000D02*
X156718000Y-123190000D01*
X157226000Y-117094000D02*
X157226000Y-123190000D01*
X155702000Y-114554000D02*
X155702000Y-117094000D01*
X158242000Y-114554000D02*
X155702000Y-114554000D01*
X150622000Y-114554000D02*
X150622000Y-117094000D01*
X150622000Y-114554000D02*
X148082000Y-114554000D01*
X148082000Y-114554000D02*
X148082000Y-117094000D01*
X149606000Y-117094000D02*
X149606000Y-123190000D01*
X149606000Y-123190000D02*
X149098000Y-123190000D01*
X149098000Y-123190000D02*
X149098000Y-117094000D01*
X148082000Y-117094000D02*
X150622000Y-117094000D01*
X150622000Y-117094000D02*
X153162000Y-117094000D01*
X151638000Y-123190000D02*
X151638000Y-117094000D01*
X152146000Y-123190000D02*
X151638000Y-123190000D01*
X152146000Y-117094000D02*
X152146000Y-123190000D01*
X150622000Y-114554000D02*
X150622000Y-117094000D01*
X153162000Y-114554000D02*
X150622000Y-114554000D01*
X153162000Y-114554000D02*
X153162000Y-117094000D01*
X140829000Y-107604000D02*
X140829000Y-108804000D01*
X139079000Y-108804000D02*
X139079000Y-107604000D01*
X146974000Y-106059000D02*
X148174000Y-106059000D01*
X148174000Y-107809000D02*
X146974000Y-107809000D01*
X146974000Y-108853000D02*
X148174000Y-108853000D01*
X148174000Y-110603000D02*
X146974000Y-110603000D01*
X155081000Y-108804000D02*
X155081000Y-107604000D01*
X156831000Y-107604000D02*
X156831000Y-108804000D01*
X139501100Y-90203600D02*
X157501100Y-90203600D01*
X139501100Y-105003600D02*
X157501100Y-105003600D01*
X157501100Y-105003600D02*
X157501100Y-85003600D01*
X157501100Y-85003600D02*
X139501100Y-85003600D01*
X139501100Y-85003600D02*
X139501100Y-105003600D01*
X146584000Y-111730000D02*
X145034000Y-111730000D01*
X146584000Y-113030000D02*
X146584000Y-111730000D01*
X145161000Y-117221000D02*
X145161000Y-123063000D01*
X145161000Y-123063000D02*
X144907000Y-123063000D01*
X144907000Y-123063000D02*
X144907000Y-117221000D01*
X144907000Y-117221000D02*
X145034000Y-117221000D01*
X145034000Y-117221000D02*
X145034000Y-123063000D01*
X145288000Y-114554000D02*
X145288000Y-114173000D01*
X144780000Y-114554000D02*
X144780000Y-114173000D01*
X142748000Y-114554000D02*
X142748000Y-114173000D01*
X142240000Y-114554000D02*
X142240000Y-114173000D01*
X140208000Y-114554000D02*
X140208000Y-114173000D01*
X139700000Y-114554000D02*
X139700000Y-114173000D01*
X143764000Y-117094000D02*
X146304000Y-117094000D01*
X144780000Y-123190000D02*
X144780000Y-117094000D01*
X145288000Y-123190000D02*
X144780000Y-123190000D01*
X145288000Y-117094000D02*
X145288000Y-123190000D01*
X143764000Y-114554000D02*
X143764000Y-117094000D01*
X146304000Y-114554000D02*
X143764000Y-114554000D01*
X146304000Y-114554000D02*
X146304000Y-117094000D01*
X141224000Y-114554000D02*
X141224000Y-117094000D01*
X141224000Y-114554000D02*
X138684000Y-114554000D01*
X140208000Y-117094000D02*
X140208000Y-123190000D01*
X140208000Y-123190000D02*
X139700000Y-123190000D01*
X139700000Y-123190000D02*
X139700000Y-117094000D01*
X138684000Y-117094000D02*
X141224000Y-117094000D01*
X141224000Y-117094000D02*
X143764000Y-117094000D01*
X142240000Y-123190000D02*
X142240000Y-117094000D01*
X142748000Y-123190000D02*
X142240000Y-123190000D01*
X142748000Y-117094000D02*
X142748000Y-123190000D01*
X141224000Y-114554000D02*
X141224000Y-117094000D01*
X143764000Y-114554000D02*
X141224000Y-114554000D01*
X143764000Y-114554000D02*
X143764000Y-117094000D01*
X138684000Y-114554000D02*
X138684000Y-117094000D01*
M02*
