G04 #@! TF.FileFunction,Soldermask,Top*
%FSLAX46Y46*%
G04 Gerber Fmt 4.6, Leading zero omitted, Abs format (unit mm)*
G04 Created by KiCad (PCBNEW 4.0.2-stable) date 2016/07/18 1:21:03*
%MOMM*%
G01*
G04 APERTURE LIST*
%ADD10C,0.100000*%
G04 APERTURE END LIST*
D10*
G36*
X149545710Y-111928274D02*
X149545719Y-111928277D01*
X149545759Y-111928281D01*
X149725410Y-111983893D01*
X149890838Y-112073339D01*
X150035742Y-112193214D01*
X150154603Y-112338952D01*
X150242893Y-112505001D01*
X150297248Y-112685036D01*
X150315600Y-112872200D01*
X150315600Y-113187800D01*
X150315506Y-113201254D01*
X150294543Y-113388144D01*
X150237679Y-113567402D01*
X150147079Y-113732202D01*
X150026196Y-113876266D01*
X149879632Y-113994106D01*
X149712971Y-114081234D01*
X149532561Y-114134332D01*
X149532522Y-114134336D01*
X149532514Y-114134338D01*
X149345275Y-114151379D01*
X149158290Y-114131726D01*
X149158281Y-114131723D01*
X149158241Y-114131719D01*
X148978590Y-114076107D01*
X148813162Y-113986661D01*
X148668258Y-113866786D01*
X148549397Y-113721048D01*
X148461107Y-113554999D01*
X148406752Y-113374964D01*
X148388400Y-113187800D01*
X148388400Y-112872200D01*
X148388494Y-112858746D01*
X148409457Y-112671856D01*
X148466321Y-112492598D01*
X148556921Y-112327798D01*
X148677804Y-112183734D01*
X148824368Y-112065894D01*
X148991029Y-111978766D01*
X149171439Y-111925668D01*
X149171478Y-111925664D01*
X149171486Y-111925662D01*
X149358725Y-111908621D01*
X149545710Y-111928274D01*
X149545710Y-111928274D01*
G37*
G36*
X142687710Y-111928274D02*
X142687719Y-111928277D01*
X142687759Y-111928281D01*
X142867410Y-111983893D01*
X143032838Y-112073339D01*
X143177742Y-112193214D01*
X143296603Y-112338952D01*
X143384893Y-112505001D01*
X143439248Y-112685036D01*
X143457600Y-112872200D01*
X143457600Y-113187800D01*
X143457506Y-113201254D01*
X143436543Y-113388144D01*
X143379679Y-113567402D01*
X143289079Y-113732202D01*
X143168196Y-113876266D01*
X143021632Y-113994106D01*
X142854971Y-114081234D01*
X142674561Y-114134332D01*
X142674522Y-114134336D01*
X142674514Y-114134338D01*
X142487275Y-114151379D01*
X142300290Y-114131726D01*
X142300281Y-114131723D01*
X142300241Y-114131719D01*
X142120590Y-114076107D01*
X141955162Y-113986661D01*
X141810258Y-113866786D01*
X141691397Y-113721048D01*
X141603107Y-113554999D01*
X141548752Y-113374964D01*
X141530400Y-113187800D01*
X141530400Y-112872200D01*
X141530494Y-112858746D01*
X141551457Y-112671856D01*
X141608321Y-112492598D01*
X141698921Y-112327798D01*
X141819804Y-112183734D01*
X141966368Y-112065894D01*
X142133029Y-111978766D01*
X142313439Y-111925668D01*
X142313478Y-111925664D01*
X142313486Y-111925662D01*
X142500725Y-111908621D01*
X142687710Y-111928274D01*
X142687710Y-111928274D01*
G37*
G36*
X140147710Y-111928274D02*
X140147719Y-111928277D01*
X140147759Y-111928281D01*
X140327410Y-111983893D01*
X140492838Y-112073339D01*
X140637742Y-112193214D01*
X140756603Y-112338952D01*
X140844893Y-112505001D01*
X140899248Y-112685036D01*
X140917600Y-112872200D01*
X140917600Y-113187800D01*
X140917506Y-113201254D01*
X140896543Y-113388144D01*
X140839679Y-113567402D01*
X140749079Y-113732202D01*
X140628196Y-113876266D01*
X140481632Y-113994106D01*
X140314971Y-114081234D01*
X140134561Y-114134332D01*
X140134522Y-114134336D01*
X140134514Y-114134338D01*
X139947275Y-114151379D01*
X139760290Y-114131726D01*
X139760281Y-114131723D01*
X139760241Y-114131719D01*
X139580590Y-114076107D01*
X139415162Y-113986661D01*
X139270258Y-113866786D01*
X139151397Y-113721048D01*
X139063107Y-113554999D01*
X139008752Y-113374964D01*
X138990400Y-113187800D01*
X138990400Y-112872200D01*
X138990494Y-112858746D01*
X139011457Y-112671856D01*
X139068321Y-112492598D01*
X139158921Y-112327798D01*
X139279804Y-112183734D01*
X139426368Y-112065894D01*
X139593029Y-111978766D01*
X139773439Y-111925668D01*
X139773478Y-111925664D01*
X139773486Y-111925662D01*
X139960725Y-111908621D01*
X140147710Y-111928274D01*
X140147710Y-111928274D01*
G37*
G36*
X154625710Y-111928274D02*
X154625719Y-111928277D01*
X154625759Y-111928281D01*
X154805410Y-111983893D01*
X154970838Y-112073339D01*
X155115742Y-112193214D01*
X155234603Y-112338952D01*
X155322893Y-112505001D01*
X155377248Y-112685036D01*
X155395600Y-112872200D01*
X155395600Y-113187800D01*
X155395506Y-113201254D01*
X155374543Y-113388144D01*
X155317679Y-113567402D01*
X155227079Y-113732202D01*
X155106196Y-113876266D01*
X154959632Y-113994106D01*
X154792971Y-114081234D01*
X154612561Y-114134332D01*
X154612522Y-114134336D01*
X154612514Y-114134338D01*
X154425275Y-114151379D01*
X154238290Y-114131726D01*
X154238281Y-114131723D01*
X154238241Y-114131719D01*
X154058590Y-114076107D01*
X153893162Y-113986661D01*
X153748258Y-113866786D01*
X153629397Y-113721048D01*
X153541107Y-113554999D01*
X153486752Y-113374964D01*
X153468400Y-113187800D01*
X153468400Y-112872200D01*
X153468494Y-112858746D01*
X153489457Y-112671856D01*
X153546321Y-112492598D01*
X153636921Y-112327798D01*
X153757804Y-112183734D01*
X153904368Y-112065894D01*
X154071029Y-111978766D01*
X154251439Y-111925668D01*
X154251478Y-111925664D01*
X154251486Y-111925662D01*
X154438725Y-111908621D01*
X154625710Y-111928274D01*
X154625710Y-111928274D01*
G37*
G36*
X152085710Y-111928274D02*
X152085719Y-111928277D01*
X152085759Y-111928281D01*
X152265410Y-111983893D01*
X152430838Y-112073339D01*
X152575742Y-112193214D01*
X152694603Y-112338952D01*
X152782893Y-112505001D01*
X152837248Y-112685036D01*
X152855600Y-112872200D01*
X152855600Y-113187800D01*
X152855506Y-113201254D01*
X152834543Y-113388144D01*
X152777679Y-113567402D01*
X152687079Y-113732202D01*
X152566196Y-113876266D01*
X152419632Y-113994106D01*
X152252971Y-114081234D01*
X152072561Y-114134332D01*
X152072522Y-114134336D01*
X152072514Y-114134338D01*
X151885275Y-114151379D01*
X151698290Y-114131726D01*
X151698281Y-114131723D01*
X151698241Y-114131719D01*
X151518590Y-114076107D01*
X151353162Y-113986661D01*
X151208258Y-113866786D01*
X151089397Y-113721048D01*
X151001107Y-113554999D01*
X150946752Y-113374964D01*
X150928400Y-113187800D01*
X150928400Y-112872200D01*
X150928494Y-112858746D01*
X150949457Y-112671856D01*
X151006321Y-112492598D01*
X151096921Y-112327798D01*
X151217804Y-112183734D01*
X151364368Y-112065894D01*
X151531029Y-111978766D01*
X151711439Y-111925668D01*
X151711478Y-111925664D01*
X151711486Y-111925662D01*
X151898725Y-111908621D01*
X152085710Y-111928274D01*
X152085710Y-111928274D01*
G37*
G36*
X157935600Y-114146000D02*
X156008400Y-114146000D01*
X156008400Y-111914000D01*
X157935600Y-111914000D01*
X157935600Y-114146000D01*
X157935600Y-114146000D01*
G37*
G36*
X145997600Y-114146000D02*
X144070400Y-114146000D01*
X144070400Y-111914000D01*
X145997600Y-111914000D01*
X145997600Y-114146000D01*
X145997600Y-114146000D01*
G37*
G36*
X147074000Y-110478000D02*
X145374000Y-110478000D01*
X145374000Y-108978000D01*
X147074000Y-108978000D01*
X147074000Y-110478000D01*
X147074000Y-110478000D01*
G37*
G36*
X149774000Y-110478000D02*
X148074000Y-110478000D01*
X148074000Y-108978000D01*
X149774000Y-108978000D01*
X149774000Y-110478000D01*
X149774000Y-110478000D01*
G37*
G36*
X140704000Y-110404000D02*
X139204000Y-110404000D01*
X139204000Y-108704000D01*
X140704000Y-108704000D01*
X140704000Y-110404000D01*
X140704000Y-110404000D01*
G37*
G36*
X156706000Y-110404000D02*
X155206000Y-110404000D01*
X155206000Y-108704000D01*
X156706000Y-108704000D01*
X156706000Y-110404000D01*
X156706000Y-110404000D01*
G37*
G36*
X156706000Y-107704000D02*
X155206000Y-107704000D01*
X155206000Y-106004000D01*
X156706000Y-106004000D01*
X156706000Y-107704000D01*
X156706000Y-107704000D01*
G37*
G36*
X140704000Y-107704000D02*
X139204000Y-107704000D01*
X139204000Y-106004000D01*
X140704000Y-106004000D01*
X140704000Y-107704000D01*
X140704000Y-107704000D01*
G37*
G36*
X149774000Y-107684000D02*
X148074000Y-107684000D01*
X148074000Y-106184000D01*
X149774000Y-106184000D01*
X149774000Y-107684000D01*
X149774000Y-107684000D01*
G37*
G36*
X147074000Y-107684000D02*
X145374000Y-107684000D01*
X145374000Y-106184000D01*
X147074000Y-106184000D01*
X147074000Y-107684000D01*
X147074000Y-107684000D01*
G37*
G36*
X140601100Y-104053600D02*
X138401100Y-104053600D01*
X138401100Y-102953600D01*
X140601100Y-102953600D01*
X140601100Y-104053600D01*
X140601100Y-104053600D01*
G37*
G36*
X158601100Y-104053600D02*
X156401100Y-104053600D01*
X156401100Y-102953600D01*
X158601100Y-102953600D01*
X158601100Y-104053600D01*
X158601100Y-104053600D01*
G37*
G36*
X158601100Y-102553600D02*
X156401100Y-102553600D01*
X156401100Y-101453600D01*
X158601100Y-101453600D01*
X158601100Y-102553600D01*
X158601100Y-102553600D01*
G37*
G36*
X140601100Y-102553600D02*
X138401100Y-102553600D01*
X138401100Y-101453600D01*
X140601100Y-101453600D01*
X140601100Y-102553600D01*
X140601100Y-102553600D01*
G37*
G36*
X140601100Y-101053600D02*
X138401100Y-101053600D01*
X138401100Y-99953600D01*
X140601100Y-99953600D01*
X140601100Y-101053600D01*
X140601100Y-101053600D01*
G37*
G36*
X158601100Y-101053600D02*
X156401100Y-101053600D01*
X156401100Y-99953600D01*
X158601100Y-99953600D01*
X158601100Y-101053600D01*
X158601100Y-101053600D01*
G37*
G36*
X140601100Y-99553600D02*
X138401100Y-99553600D01*
X138401100Y-98453600D01*
X140601100Y-98453600D01*
X140601100Y-99553600D01*
X140601100Y-99553600D01*
G37*
G36*
X158601100Y-99553600D02*
X156401100Y-99553600D01*
X156401100Y-98453600D01*
X158601100Y-98453600D01*
X158601100Y-99553600D01*
X158601100Y-99553600D01*
G37*
G36*
X140601100Y-98053600D02*
X138401100Y-98053600D01*
X138401100Y-96953600D01*
X140601100Y-96953600D01*
X140601100Y-98053600D01*
X140601100Y-98053600D01*
G37*
G36*
X158601100Y-98053600D02*
X156401100Y-98053600D01*
X156401100Y-96953600D01*
X158601100Y-96953600D01*
X158601100Y-98053600D01*
X158601100Y-98053600D01*
G37*
G36*
X140601100Y-96553600D02*
X138401100Y-96553600D01*
X138401100Y-95453600D01*
X140601100Y-95453600D01*
X140601100Y-96553600D01*
X140601100Y-96553600D01*
G37*
G36*
X158601100Y-96553600D02*
X156401100Y-96553600D01*
X156401100Y-95453600D01*
X158601100Y-95453600D01*
X158601100Y-96553600D01*
X158601100Y-96553600D01*
G37*
G36*
X158601100Y-95053600D02*
X156401100Y-95053600D01*
X156401100Y-93953600D01*
X158601100Y-93953600D01*
X158601100Y-95053600D01*
X158601100Y-95053600D01*
G37*
G36*
X140601100Y-95053600D02*
X138401100Y-95053600D01*
X138401100Y-93953600D01*
X140601100Y-93953600D01*
X140601100Y-95053600D01*
X140601100Y-95053600D01*
G37*
G36*
X140601100Y-93553600D02*
X138401100Y-93553600D01*
X138401100Y-92453600D01*
X140601100Y-92453600D01*
X140601100Y-93553600D01*
X140601100Y-93553600D01*
G37*
G36*
X158601100Y-93553600D02*
X156401100Y-93553600D01*
X156401100Y-92453600D01*
X158601100Y-92453600D01*
X158601100Y-93553600D01*
X158601100Y-93553600D01*
G37*
G36*
X140601100Y-92053600D02*
X138401100Y-92053600D01*
X138401100Y-90953600D01*
X140601100Y-90953600D01*
X140601100Y-92053600D01*
X140601100Y-92053600D01*
G37*
G36*
X158601100Y-92053600D02*
X156401100Y-92053600D01*
X156401100Y-90953600D01*
X158601100Y-90953600D01*
X158601100Y-92053600D01*
X158601100Y-92053600D01*
G37*
G36*
X143229000Y-78179600D02*
X139727000Y-78179600D01*
X139727000Y-75439600D01*
X143229000Y-75439600D01*
X143229000Y-78179600D01*
X143229000Y-78179600D01*
G37*
G36*
X140358800Y-74572800D02*
X138126800Y-74572800D01*
X138126800Y-63603200D01*
X140358800Y-63603200D01*
X140358800Y-74572800D01*
X140358800Y-74572800D01*
G37*
G36*
X143229000Y-62761800D02*
X139727000Y-62761800D01*
X139727000Y-60021800D01*
X143229000Y-60021800D01*
X143229000Y-62761800D01*
X143229000Y-62761800D01*
G37*
M02*
