G04 #@! TF.FileFunction,Copper,L2,Bot,Signal*
%FSLAX46Y46*%
G04 Gerber Fmt 4.6, Leading zero omitted, Abs format (unit mm)*
G04 Created by KiCad (PCBNEW 4.0.2-stable) date 2016/07/18 1:21:03*
%MOMM*%
G01*
G04 APERTURE LIST*
%ADD10C,0.100000*%
%ADD11R,1.727200X2.032000*%
%ADD12O,1.727200X2.032000*%
%ADD13C,0.600000*%
%ADD14C,0.250000*%
G04 APERTURE END LIST*
D10*
D11*
X156972000Y-113030000D03*
D12*
X154432000Y-113030000D03*
X151892000Y-113030000D03*
X149352000Y-113030000D03*
D11*
X145034000Y-113030000D03*
D12*
X142494000Y-113030000D03*
X139954000Y-113030000D03*
D13*
X155448000Y-98806000D03*
X155448000Y-91440000D03*
X141478000Y-63754000D03*
X141478000Y-73406000D03*
X141732000Y-106934000D03*
X154178000Y-107696000D03*
X144018000Y-91440000D03*
X142621000Y-64516000D03*
X142621000Y-71882000D03*
X145034000Y-96012000D03*
X145542000Y-90678000D03*
X144729200Y-67386200D03*
X143789400Y-94488000D03*
X150114000Y-69850000D03*
X143002000Y-99060000D03*
X154178000Y-105156000D03*
X154686000Y-103632000D03*
X151384000Y-91440000D03*
D14*
X155448000Y-106426000D02*
X155448000Y-98806000D01*
X155448000Y-98806000D02*
X155448000Y-91440000D01*
X154178000Y-107696000D02*
X155448000Y-106426000D01*
X141478000Y-73406000D02*
X141478000Y-63754000D01*
X153336000Y-106854000D02*
X154178000Y-107696000D01*
X141732000Y-106934000D02*
X153336000Y-106854000D01*
X142621000Y-71882000D02*
X144018000Y-73279000D01*
X144018000Y-73279000D02*
X144018000Y-91440000D01*
X142621000Y-64516000D02*
X142621000Y-71882000D01*
X145542000Y-95504000D02*
X145034000Y-96012000D01*
X145542000Y-90678000D02*
X145542000Y-95504000D01*
X144729200Y-93548200D02*
X144729200Y-67386200D01*
X143789400Y-94488000D02*
X144729200Y-93548200D01*
X148082000Y-99060000D02*
X150114000Y-97028000D01*
X150114000Y-97028000D02*
X150114000Y-69850000D01*
X143002000Y-99060000D02*
X143058400Y-99116400D01*
X143058400Y-99116400D02*
X148082000Y-99060000D01*
X148082000Y-99060000D02*
X154178000Y-105156000D01*
X151384000Y-100330000D02*
X154686000Y-103632000D01*
X151384000Y-91440000D02*
X151384000Y-100330000D01*
M02*
